<svg xmlns="http://www.w3.org/2000/svg" xmlns:xlink="http://www.w3.org/1999/xlink" viewBox="0 0 491.17 129.16"><defs><style>.a{fill:#fff;fill-rule:evenodd;}.b{mask:url(#a);}.c{fill:#42c1ca;}.d{fill:#fefefe;}</style><mask id="a" x="0" y="0" width="129.16" height="129.16" maskUnits="userSpaceOnUse"><g transform="translate(0 0)"><path class="a" d="M0,129.16V0H129.16V129.16Z"/></g></mask></defs><title>filecoin-logo</title><g class="b"><path class="c" d="M128.46,74A64.57,64.57,0,1,1,74,.7,64.58,64.58,0,0,1,128.46,74" transform="translate(0 0)"/></g><path class="d" d="M93.54,25.84c-13.05-8.25-22.39,9.92-22.61,10.48C68.6,40.86,66.69,47.81,65.5,53l-17-2.52-.67,4.59,16.79,2.48c-.47,2.39-.7,3.94-.7,3.94L63,66.53h.05l-.06.3L46.37,64.38,45.75,69,62.21,71.4c-4.33,21.84-7.53,28.42-10.75,32-.66.77-5.28,3.87-7.61-1.67-1.62-3.86-4.7-3.33-4.7-3.33-.87-.08-4.92,2.53,1.42,6.54,13,8.26,22.39-9.92,22.61-10.47,2.33-4.54,5.43-16.81,6.62-22L86.91,75l.67-4.58L70.73,68c.46-2.4.7-3.94.7-3.94L72.26,59h-.05l.05-.3,16.66,2.46.63-4.59L73.09,54.11C77.42,32.27,79.43,31,82.65,27.38c.66-.77,5.28-3.86,7.61,1.67C91.88,32.91,95,32.38,95,32.38c.87.09,4.91-2.53-1.43-6.54" transform="translate(0 0)"/><path class="a" d="M220.06,57.74H191.17V34.12H221l.68-7.2H182.91V97h8.26V64.46h28.89Zm19.3-30.82h-7.87v9.22h7.87Zm0,18.62h-7.87V97h7.87Zm21-19.29-7.87.86V75c0,17.08.29,22.94,13,22.94a32.52,32.52,0,0,0,5.28-.58l-.48-6.14c-2.4.19-3.07.29-4.22.29-5.38,0-5.67-3.46-5.67-14.69V26.25Zm38.4,71.9c-14.68,0-23.61-10.46-23.61-27,0-15.36,9.21-26.5,22.65-26.88,12.77,0,20.74,9.69,20.74,24.86,0,.77-.1,2.69-.1,3.55H283.23c0,11.62,6.82,18.72,15.84,18.72a28.37,28.37,0,0,0,16.32-5.18l2.4,5.76C313.57,95.66,307,98.15,298.78,98.15ZM283.52,67.24H311c0-10.94-5.48-16.51-13.16-16.51S284.38,57.16,283.52,67.24Zm81.12,26.21c-3.36,3.17-8.83,4.7-13.92,4.7-16,0-24.77-12.57-24.77-26.88s9.31-27,24.67-27c6,0,11.14,1.72,14,4.51l-2,5.57a21.66,21.66,0,0,0-12.09-3.56c-9.41,0-16.61,8.74-16.61,20.64s6.91,20.26,17.18,20.26a20.67,20.67,0,0,0,11.62-3.84l1.92,5.57Zm45.79-22.08c0-11-4-20.55-15.65-20.55-11,0-16.12,10.18-16.12,20.64S383.74,91.72,395,91.72,410.43,81.83,410.43,71.37Zm8.16-.1c0,14.21-8.35,26.88-23.81,26.88s-24.19-12-24.19-26.78S379.42,44.3,395,44.3C410.72,44.3,418.59,56.49,418.59,71.27ZM437.5,26.92h-7.87v9.22h7.87Zm0,18.62h-7.87V97h7.87Zm37.44-1.24c-7.1,0-14.3,3.36-18.33,8.83l-.67-7.59h-6.82L449.31,58V97h7.87V61.86c1.25-4.6,7.4-10.84,16-10.84,9.5,0,10.08,6.81,10.08,20.16V97h7.87V66.18C491.17,51.78,486.27,44.3,474.94,44.3Z" transform="translate(0 0)"/></svg>